<?xml version="1.0" encoding="utf-8"?>
<!-- Generator: Adobe Illustrator 24.2.1, SVG Export Plug-In . SVG Version: 6.00 Build 0)  -->
<svg version="1.1" id="Layer_1" xmlns="http://www.w3.org/2000/svg" xmlns:xlink="http://www.w3.org/1999/xlink" x="0px" y="0px"
	 viewBox="0 0 163 158.49" enable-background="new 0 0 163 158.49" xml:space="preserve">
<g>
	<rect x="1" y="1" fill="#1B579E" stroke="#000000" stroke-width="2" stroke-miterlimit="10" width="161" height="156.49"/>
	<g>
		<path d="M137.45,134.74c-1.55,0-3.27-0.78-4.61-2.09L87.8,88.62c-2.28-2.23-2.91-5.46-1.38-7.06c0.73-0.75,1.7-0.91,2.39-0.91
			c1.55,0,3.27,0.78,4.61,2.09l45.04,44.04c2.28,2.23,2.91,5.46,1.38,7.06C139.12,134.59,138.14,134.74,137.45,134.74z"/>
		<path d="M88.81,82.65c0.8,0,2.06,0.4,3.21,1.52l45.04,44.04c1.68,1.64,1.92,3.64,1.34,4.24c-0.24,0.25-0.65,0.3-0.95,0.3
			c-0.8,0-2.07-0.4-3.21-1.52L89.2,87.19c-1.68-1.64-1.92-3.64-1.34-4.24C88.1,82.7,88.51,82.65,88.81,82.65 M88.81,78.65
			c-1.48,0-2.84,0.5-3.83,1.52v0c-2.32,2.41-1.69,6.83,1.42,9.87l45.04,44.04c1.79,1.75,4,2.66,6.01,2.66c1.48,0,2.84-0.5,3.83-1.52
			v0c2.32-2.41,1.69-6.83-1.42-9.87L94.82,81.31C93.03,79.56,90.82,78.65,88.81,78.65L88.81,78.65z"/>
	</g>
	<path fill="#C9FBFF" stroke="#000000" stroke-width="6" stroke-miterlimit="10" d="M19.92,53.66c0.84,50.11,74.87,50.12,75.72,0
		C94.8,3.54,20.77,3.54,19.92,53.66z"/>
</g>
</svg>
